<svg width="28" height="28" viewBox="0 0 28 28" fill="none" xmlns="http://www.w3.org/2000/svg">
<path id="Vector" d="M21.4118 8.90909C17.7718 8.90909 14.8235 11.1873 14.8235 14C14.8235 16.8127 17.7718 19.0909 21.4118 19.0909C25.0518 19.0909 28 16.8127 28 14C28 11.1873 25.0518 8.90909 21.4118 8.90909ZM17.2941 14C17.2941 12.2436 19.1388 10.8182 21.4118 10.8182C22.1035 10.8182 22.7294 10.9582 23.3059 11.1873L17.7718 15.4636C17.4753 15.0182 17.2941 14.5345 17.2941 14ZM21.4118 17.1818C20.72 17.1818 20.0941 17.0418 19.5176 16.8127L25.0518 12.5364C25.3482 12.9818 25.5294 13.4655 25.5294 14C25.5294 15.7564 23.6847 17.1818 21.4118 17.1818ZM19.7647 21.6364H3.29412V6.36364H19.7647V7.63636H23.0588V2.54545C23.0588 1.14545 21.5765 0 19.7647 0H3.29412C1.48235 0 0 1.14545 0 2.54545V25.4545C0 26.8545 1.48235 28 3.29412 28H19.7647C21.5765 28 23.0588 26.8545 23.0588 25.4545V20.3636H19.7647V21.6364Z" fill="#F0C414"/>
</svg>
