<?xml version="1.0" encoding="UTF-8"?>
<!DOCTYPE svg PUBLIC "-//W3C//DTD SVG 1.1//EN" "http://www.w3.org/Graphics/SVG/1.1/DTD/svg11.dtd">
<svg xmlns="http://www.w3.org/2000/svg" version="1.1" width="25px" height="20px" style="shape-rendering:geometricPrecision; text-rendering:geometricPrecision; image-rendering:optimizeQuality; fill-rule:evenodd; clip-rule:evenodd" xmlns:xlink="http://www.w3.org/1999/xlink">
<g><path style="opacity:1" fill="#f0f0f1" d="M 12.5,-0.5 C 14.1667,-0.5 15.8333,-0.5 17.5,-0.5C 19.1511,1.40209 19.4845,3.40209 18.5,5.5C 17.5,5.5 16.5,5.5 15.5,5.5C 14.8333,5.5 14.1667,5.5 13.5,5.5C 13.4828,3.43525 13.1495,1.43525 12.5,-0.5 Z"/></g>
<g><path style="opacity:1" fill="#bdbdc1" d="M 17.5,-0.5 C 19.8333,-0.5 22.1667,-0.5 24.5,-0.5C 24.5,1.5 24.5,3.5 24.5,5.5C 23.1667,5.5 21.8333,5.5 20.5,5.5C 19.8333,5.5 19.1667,5.5 18.5,5.5C 19.4845,3.40209 19.1511,1.40209 17.5,-0.5 Z"/></g>
<g><path style="opacity:1" fill="#b3b3b5" d="M 7.5,-0.5 C 9.16667,-0.5 10.8333,-0.5 12.5,-0.5C 13.1495,1.43525 13.4828,3.43525 13.5,5.5C 12.5,5.5 11.5,5.5 10.5,5.5C 9.5,5.5 8.5,5.5 7.5,5.5C 8.64142,3.54868 8.64142,1.54868 7.5,-0.5 Z"/></g>
<g><path style="opacity:1" fill="#e3e3e3" d="M -0.5,-0.5 C 2.16667,-0.5 4.83333,-0.5 7.5,-0.5C 8.64142,1.54868 8.64142,3.54868 7.5,5.5C 7.16667,5.5 6.83333,5.5 6.5,5.5C 4.16667,5.5 1.83333,5.5 -0.5,5.5C -0.5,3.5 -0.5,1.5 -0.5,-0.5 Z"/></g>
<g><path style="opacity:1" fill="#0022b7" d="M 6.5,5.5 C 6.83333,5.5 7.16667,5.5 7.5,5.5C 8.5,5.5 9.5,5.5 10.5,5.5C 10.5,7.83333 10.5,10.1667 10.5,12.5C 9.16667,12.5 7.83333,12.5 6.5,12.5C 5.16667,12.5 3.83333,12.5 2.5,12.5C 2.5,10.5 2.5,8.5 2.5,6.5C 4.09903,6.76781 5.43236,6.43448 6.5,5.5 Z"/></g>
<g><path style="opacity:1" fill="#0022b8" d="M 15.5,5.5 C 16.5,5.5 17.5,5.5 18.5,5.5C 19.1667,5.5 19.8333,5.5 20.5,5.5C 20.5,7.83333 20.5,10.1667 20.5,12.5C 18.5,12.5 16.5,12.5 14.5,12.5C 14.298,10.0504 14.6314,7.71702 15.5,5.5 Z"/></g>
<g><path style="opacity:1" fill="#2f2b99" d="M -0.5,5.5 C 1.83333,5.5 4.16667,5.5 6.5,5.5C 5.43236,6.43448 4.09903,6.76781 2.5,6.5C 2.5,8.5 2.5,10.5 2.5,12.5C 3.83333,12.5 5.16667,12.5 6.5,12.5C 6.5,12.8333 6.5,13.1667 6.5,13.5C 4.16667,13.5 1.83333,13.5 -0.5,13.5C -0.5,10.8333 -0.5,8.16667 -0.5,5.5 Z"/></g>
<g><path style="opacity:1" fill="#041e9b" d="M 20.5,5.5 C 21.8333,5.5 23.1667,5.5 24.5,5.5C 24.5,7.83333 24.5,10.1667 24.5,12.5C 23.1667,12.5 21.8333,12.5 20.5,12.5C 20.5,10.1667 20.5,7.83333 20.5,5.5 Z"/></g>
<g><path style="opacity:1" fill="#0d219d" d="M 10.5,5.5 C 11.5,5.5 12.5,5.5 13.5,5.5C 14.1667,5.5 14.8333,5.5 15.5,5.5C 14.6314,7.71702 14.298,10.0504 14.5,12.5C 13.1667,12.5 11.8333,12.5 10.5,12.5C 10.5,10.1667 10.5,7.83333 10.5,5.5 Z"/></g>
<g><path style="opacity:1" fill="#b91818" d="M -0.5,13.5 C 1.83333,13.5 4.16667,13.5 6.5,13.5C 7.83333,13.5 9.16667,13.5 10.5,13.5C 10.5,15.5 10.5,17.5 10.5,19.5C 6.83333,19.5 3.16667,19.5 -0.5,19.5C -0.5,17.5 -0.5,15.5 -0.5,13.5 Z"/></g>
<g><path style="opacity:1" fill="#ac1821" d="M 6.5,13.5 C 6.5,13.1667 6.5,12.8333 6.5,12.5C 7.83333,12.5 9.16667,12.5 10.5,12.5C 11.8333,12.5 13.1667,12.5 14.5,12.5C 16.5,12.5 18.5,12.5 20.5,12.5C 21.8333,12.5 23.1667,12.5 24.5,12.5C 24.5,14.8333 24.5,17.1667 24.5,19.5C 19.8333,19.5 15.1667,19.5 10.5,19.5C 10.5,17.5 10.5,15.5 10.5,13.5C 9.16667,13.5 7.83333,13.5 6.5,13.5 Z"/></g>
</svg>
