<svg width="30" height="35" viewBox="0 0 30 35" fill="none" xmlns="http://www.w3.org/2000/svg">
<path id="Oval" fill-rule="evenodd" clip-rule="evenodd" d="M15 35C16.522 35 23.7697 26.8348 25.5568 24.2338C28.3039 20.2356 30 17.8703 30 13.4565C30 6.02467 23.2843 0 15 0C6.71573 0 0 6.02467 0 13.4565C0 17.8933 1.57158 20.2428 4.30957 24.2338C6.2179 27.0155 13.478 35 15 35ZM15 20.183C19.1421 20.183 22.5 17.1707 22.5 13.4548C22.5 9.7389 19.1421 6.72656 15 6.72656C10.8579 6.72656 7.5 9.7389 7.5 13.4548C7.5 17.1707 10.8579 20.183 15 20.183Z" fill="black" fill-opacity="0.9"/>
</svg>
