<svg width="58" height="58" viewBox="0 0 58 58" fill="none" xmlns="http://www.w3.org/2000/svg">
<g id="ic_Location">
<g id="Rectangle" filter="url(#filter0_d_328_8758)">
<rect x="10" y="5" width="37.931" height="43.6773" rx="18.9655" fill="white"/>
</g>
<path id="Shape" fill-rule="evenodd" clip-rule="evenodd" d="M36.6724 25.8461C36.2759 21.7067 33.4224 18.4209 29.8276 17.9643V15.9194H28.1034V17.9643C24.5086 18.4209 21.6552 21.7067 21.2586 25.8461H19.4827V27.8314H21.2586C21.6552 31.9708 24.5086 35.2565 28.1034 35.7132V37.7581H29.8276V35.7132C33.4224 35.2565 36.2759 31.9708 36.6724 27.8314H38.4483V25.8461H36.6724ZM28.9655 22.8681C27.0603 22.8681 25.5172 24.645 25.5172 26.8387C25.5172 29.0325 27.0603 30.8094 28.9655 30.8094C30.8707 30.8094 32.4138 29.0325 32.4138 26.8387C32.4138 24.645 30.8707 22.8681 28.9655 22.8681ZM22.931 26.8387C22.931 30.6804 25.6293 33.7874 28.9655 33.7874C32.3017 33.7874 35 30.6804 35 26.8387C35 22.9971 32.3017 19.8901 28.9655 19.8901C25.6293 19.8901 22.931 22.9971 22.931 26.8387Z" fill="black"/>
</g>
<defs>
<filter id="filter0_d_328_8758" x="0" y="0" width="57.931" height="63.6772" filterUnits="userSpaceOnUse" color-interpolation-filters="sRGB">
<feFlood flood-opacity="0" result="BackgroundImageFix"/>
<feColorMatrix in="SourceAlpha" type="matrix" values="0 0 0 0 0 0 0 0 0 0 0 0 0 0 0 0 0 0 127 0" result="hardAlpha"/>
<feOffset dy="5"/>
<feGaussianBlur stdDeviation="5"/>
<feColorMatrix type="matrix" values="0 0 0 0 0 0 0 0 0 0 0 0 0 0 0 0 0 0 0.1 0"/>
<feBlend mode="normal" in2="BackgroundImageFix" result="effect1_dropShadow_328_8758"/>
<feBlend mode="normal" in="SourceGraphic" in2="effect1_dropShadow_328_8758" result="shape"/>
</filter>
</defs>
</svg>
