<svg width="30" height="30" viewBox="0 0 30 30" fill="none" xmlns="http://www.w3.org/2000/svg">
<path id="Vector" d="M17.1429 0C10.0429 0 4.28571 6.71667 4.28571 15H0L5.55714 21.4833L5.65714 21.7167L11.4286 15H7.14286C7.14286 8.55 11.6143 3.33333 17.1429 3.33333C22.6714 3.33333 27.1429 8.55 27.1429 15C27.1429 21.45 22.6714 26.6667 17.1429 26.6667C14.3857 26.6667 11.8857 25.35 10.0857 23.2333L8.05714 25.6C10.3857 28.3167 13.5857 30 17.1429 30C24.2429 30 30 23.2833 30 15C30 6.71667 24.2429 0 17.1429 0ZM15.7143 8.33333V16.6667L21.8286 20.9L22.8571 18.8833L17.8571 15.4167V8.33333H15.7143Z" fill="#F0C414"/>
</svg>
