<svg width="30" height="25" viewBox="0 0 30 25" fill="none" xmlns="http://www.w3.org/2000/svg">
<path d="M27.5668 7.09814L25.7188 9.99564C26.61 11.8486 27.0464 13.9031 26.9887 15.975C26.931 18.0469 26.3811 20.0716 25.3883 21.8675H4.56436C3.274 19.534 2.73932 16.8292 3.03958 14.154C3.33984 11.4789 4.45905 8.97576 6.23129 7.0158C8.00353 5.05584 10.3345 3.74337 12.8785 3.27297C15.4226 2.80256 18.0443 3.19926 20.3551 4.40425L23.1346 2.47781C20.3047 0.586158 16.948 -0.261495 13.6014 0.0704352C10.2548 0.402365 7.11167 1.8947 4.67478 4.30873C2.23788 6.72276 0.648017 9.919 0.159505 13.3862C-0.329008 16.8534 0.312053 20.3912 1.98015 23.4338C2.24234 23.9072 2.61882 24.3008 3.07217 24.5756C3.52552 24.8504 4.03996 24.9967 4.56436 25H25.3733C25.9028 25.0022 26.4234 24.8585 26.8825 24.5834C27.3416 24.3084 27.7228 23.9118 27.9875 23.4338C29.3718 20.934 30.0666 18.084 29.995 15.1985C29.9234 12.3131 29.0883 9.50435 27.5819 7.08248L27.5668 7.09814ZM12.8579 17.811C13.1369 18.1023 13.4684 18.3333 13.8331 18.491C14.1979 18.6486 14.5889 18.7297 14.9838 18.7297C15.3787 18.7297 15.7697 18.6486 16.1345 18.491C16.4993 18.3333 16.8307 18.1023 17.1098 17.811L25.6137 4.51389L12.8579 13.3787C12.5785 13.6696 12.3568 14.015 12.2056 14.3953C12.0544 14.7756 11.9766 15.1832 11.9766 15.5949C11.9766 16.0065 12.0544 16.4141 12.2056 16.7944C12.3568 17.1747 12.5785 17.5201 12.8579 17.811Z" fill="#F0C414"/>
</svg>
