<svg width="30" height="30" viewBox="0 0 30 30" fill="none" xmlns="http://www.w3.org/2000/svg">
<g id="Addchart" clip-path="url(#clip0_328_8471)">
<path id="Vector" d="M27.5 6.25V8.75H23.75V12.5H21.25V8.75H17.5V6.25H21.25V2.5H23.75V6.25H27.5ZM23.75 23.75H6.25V6.25H13.75V3.75H6.25C4.875 3.75 3.75 4.875 3.75 6.25V23.75C3.75 25.125 4.875 26.25 6.25 26.25H23.75C25.125 26.25 26.25 25.125 26.25 23.75V16.25H23.75V23.75ZM18.75 16.25V21.25H21.25V16.25H18.75ZM13.75 21.25H16.25V11.25H13.75V21.25ZM11.25 21.25V13.75H8.75V21.25H11.25Z" fill="#F0C414"/>
</g>
<defs>
<clipPath id="clip0_328_8471">
<rect width="30" height="30" fill="white"/>
</clipPath>
</defs>
</svg>
